<svg xmlns="http://www.w3.org/2000/svg" version="1.1" xmlns:xlink="http://www.w3.org/1999/xlink" width="484" height="456"><svg width="484" height="456" viewBox="0 0 484 456" fill="none" xmlns="http://www.w3.org/2000/svg">
<path d="M169.391 32.348C170.687 32.3409 171.983 32.3337 173.319 32.3264C174.749 32.3235 176.179 32.3208 177.609 32.3182C179.121 32.3119 180.632 32.3053 182.144 32.2983C187.104 32.2773 192.065 32.2669 197.026 32.2569C198.739 32.2529 200.453 32.2488 202.167 32.2446C210.226 32.2255 218.285 32.2113 226.344 32.203C235.613 32.1932 244.882 32.167 254.151 32.1265C261.335 32.0962 268.519 32.0815 275.704 32.0782C279.984 32.0759 284.265 32.0671 288.545 32.0417C292.583 32.0182 296.62 32.0143 300.658 32.0245C302.127 32.025 303.595 32.0188 305.064 32.0049C318.3 31.8869 331.502 33.8658 343.287 40.2452C343.945 40.5888 344.602 40.9324 345.28 41.2865C368.196 53.5715 379.179 72.9766 391.338 94.964C394.777 101.171 398.322 107.311 401.912 113.433C403.08 115.426 404.248 117.42 405.416 119.413C406 120.41 406.584 121.407 407.186 122.434C416.376 138.162 425.414 153.98 434.433 169.807C435.055 170.898 435.678 171.988 436.319 173.112C436.923 174.173 437.527 175.233 438.15 176.325C439.996 179.533 441.883 182.714 443.772 185.898C467.286 226.187 448.679 262.93 427.518 299.013C422.97 306.768 418.489 314.56 414.037 322.37C407.004 334.704 399.932 347.015 392.817 359.302C390.935 362.563 389.069 365.833 387.205 369.105C385.983 371.235 384.76 373.365 383.537 375.495C382.994 376.456 382.452 377.417 381.892 378.406C363.932 409.55 335.483 424.051 300.01 423.883C298.595 423.887 297.18 423.893 295.766 423.899C291.976 423.913 288.187 423.908 284.398 423.898C280.399 423.891 276.4 423.898 272.401 423.902C265.69 423.908 258.979 423.901 252.269 423.886C244.552 423.87 236.836 423.875 229.12 423.892C222.449 423.906 215.779 423.907 209.108 423.9C205.144 423.895 201.18 423.894 197.216 423.904C193.486 423.913 189.756 423.907 186.026 423.889C184.035 423.884 182.044 423.892 180.053 423.902C142.945 423.646 117.007 404.811 98.9748 373.495C97.8368 371.528 96.6988 369.56 95.5607 367.593C92.9923 363.148 90.4296 358.699 87.8693 354.249C84.2614 347.984 80.6237 341.737 76.9748 335.495C71.4797 326.093 66.0253 316.668 60.5956 307.228C57.4881 301.831 54.3634 296.445 51.1974 291.081C28.5326 252.675 18.8985 218.422 43.2873 177.37C43.9934 176.162 44.6983 174.952 45.402 173.742C46.8595 171.238 48.3223 168.737 49.7887 166.238C52.9414 160.854 56.0172 155.427 59.1001 150.003C64.8893 139.825 70.7574 129.695 76.6752 119.592C80.9135 112.345 85.0871 105.063 89.2413 97.768C91.5721 93.6784 93.9126 89.5944 96.2521 85.5099C97.298 83.6796 98.3406 81.8474 99.3771 80.0118C113.858 54.3695 138.317 32.4661 169.391 32.348Z" fill="black"></path>
<path d="M256.378 340.907C240.443 340.907 226.447 335.954 214.388 326.049C202.545 316.144 193.285 302.255 186.61 284.382C180.15 266.294 176.92 244.976 176.92 220.428C176.92 196.741 180.473 176.069 187.579 158.412C194.9 140.539 204.59 126.758 216.649 117.068C228.923 107.163 242.489 102.21 257.347 102.21C266.176 102.21 273.928 103.071 280.603 104.794C287.278 106.301 293.2 108.347 298.368 110.931C300.952 112.438 302.244 114.699 302.244 117.714L303.213 166.81C303.213 170.471 301.921 172.301 299.337 172.301C296.968 172.301 295.461 170.901 294.815 168.102L291.585 156.151C287.063 139.355 281.787 127.727 275.758 121.267C269.944 114.807 262.946 111.577 254.763 111.577C239.69 111.577 227.093 120.944 216.972 139.678C207.067 158.197 202.114 185.113 202.114 220.428C202.114 244.545 204.59 264.894 209.543 281.475C214.711 298.056 221.279 310.545 229.246 318.943C237.429 327.341 246.042 331.54 255.086 331.54C264.776 331.54 272.528 328.525 278.342 322.496C284.371 316.467 289.432 304.839 293.523 287.612L297.399 271.785C298.045 268.555 299.768 267.155 302.567 267.586C304.936 268.017 306.12 269.847 306.12 273.077L304.828 325.403C304.828 328.418 303.428 330.679 300.629 332.186C295.461 334.77 289.324 336.816 282.218 338.323C275.327 340.046 266.714 340.907 256.378 340.907Z" fill="white"></path>
</svg><style>@media (prefers-color-scheme: light) { :root { filter: none; } }
@media (prefers-color-scheme: dark) { :root { filter: invert(100%); } }
</style></svg>